<svg xmlns="http://www.w3.org/2000/svg" viewBox="0 0 841.18 354.33"><defs><style>.cls-1{font-size:36px;font-family:ProductSans-Bold, Product Sans;font-weight:700;}.cls-1,.cls-4{fill:#fff;}.cls-2{letter-spacing:-0.06em;}.cls-3{letter-spacing:-0.01em;}.cls-5{font-size:59.14px;font-family:ProductSans-Regular, Product Sans;}</style></defs><g id="Layer_2" data-name="Layer 2"><g id="Layer_1-2" data-name="Layer 1"><text class="cls-1" transform="translate(0 30.89)">INTERN<tspan class="cls-2" x="126.21" y="0">A</tspan><tspan x="149.65" y="0">T</tspan><tspan class="cls-3" x="170.64" y="0">I</tspan><tspan x="180.32" y="0">ONAL</tspan></text><path class="cls-4" d="M77.27,237.84q-32.23,0-52-21.12Q5.49,195.87,5.5,161.46V39.58H30.41v123q0,23.83,12.46,37.65T77.27,214q21.95,0,34.4-13.81t12.46-37.65v-123h24.92V161.46q0,35.22-19.5,55.8T77.27,237.84Z"/><path class="cls-4" d="M253.32,235.68q-16.24,0-26.95-10t-11-27.9V105.41H192.11V82.66H215.4V44.58h24.92V82.66h34.77v22.75H240.32v84.22q0,13.27,5.15,18a16.69,16.69,0,0,0,11.65,4.74,25.16,25.16,0,0,0,5.82-.67,30.28,30.28,0,0,0,5.28-1.76c12.62-4.47,19.13,16.61,7.85,22.21A67.08,67.08,0,0,1,253.32,235.68Z"/><path class="cls-4" d="M558.92,227.73a59.59,59.59,0,0,1-27.77-6.48A48.59,48.59,0,0,1,511.83,204H510.7l1.13,17.18v60.91H485.89V83H510.7v21.18h1.13A48.49,48.49,0,0,1,531.15,87a59.48,59.48,0,0,1,27.77-6.49q27.36,0,46.25,21.43,19.46,21.72,19.46,52.17,0,30.74-19.46,52.17Q586.29,227.74,558.92,227.73ZM554.69,204Q573.31,204,586,190q12.69-13.81,12.69-35.82,0-21.7-12.69-35.81t-31.31-14.1a40.76,40.76,0,0,0-31.58,14.1c-8.27,9.4-12.41,19.34-12.41,33.81,0,14.66,4.14,28.7,12.41,38.1A41.13,41.13,0,0,0,554.69,204Z"/><path class="cls-4" d="M689.21,41.87a18.33,18.33,0,1,1-36.66,0,18.33,18.33,0,1,1,36.66,0Zm-5.36,47.66V227.71h-26V89.53Z"/><path class="cls-4" d="M779.14,82.53q28.75,0,45.4,15.37t16.64,42.16v85.16H816.36V206h-1.13q-16.07,23.7-42.86,23.69-22.85,0-38.21-13.53t-15.37-33.84q0-21.44,16.21-34.12t43.29-12.69q23.12,0,38.07,8.46v-5.93q0-13.53-10.72-23a36.73,36.73,0,0,0-25.09-9.45q-21.72,0-34.41,18.33L723.3,109.6Q742.19,82.53,779.14,82.53ZM745.58,182.92q0,10.16,8.6,16.92a31.64,31.64,0,0,0,20.16,6.77q16.35,0,29.19-12.13T816.36,166q-12.12-9.58-33.84-9.59-15.79,0-26.37,7.62T745.58,182.92Z"/><rect class="cls-4" x="567.56" y="253.22" width="273.61" height="101.11"/><text class="cls-5" transform="translate(599.17 324.66)">MUN’20</text><g id="g3320"><path class="cls-4" d="M300.57,172.36l.47.39c-.51-3.51-.78-7.34.23-10.69,1.52-5.39,3.44-10.63,4.41-16.21.78-4.33,1.68-9.22,1.18-13.39a21.86,21.86,0,0,1-2.43,6.44c-4.72,7.3-9.56,15.89-6.24,25.19-.08.11-.2.23-.32.15-1.32-3.08-1.64-6.56-2.49-9.84-2.31-8.71-9-16-7-26.08a32.6,32.6,0,0,0-2,7c-1.17,6.17,0,12.69,1.68,18.39C290.1,160.81,297,165.88,300.57,172.36Z"/><path class="cls-4" d="M298.77,127.15a23.94,23.94,0,0,1,7.15-8.52c6.71-5.07,14.06-11.63,14.17-20.22-2.26,6.17-9,8.74-13.51,13a20.72,20.72,0,0,0-5.27,7.73l-.16-.12c.55-2.49,1.61-4.72,2.35-7.14,1.95-6.56,1.6-14.41,8-18.82a17.69,17.69,0,0,0-8.51,5.7h0c-5.19,5.74-4.73,14.21-4.06,21.71A29.7,29.7,0,0,1,298.77,127.15Z"/><path class="cls-4" d="M306.58,108.44c3.59-3.36,7.73-5.86,10.78-9.84,3.63-4.8,6.79-10.19,11.56-14.33-6.45,2.5-13.4,5.08-17.57,11.71C308.89,99.85,308.5,104.42,306.58,108.44Z"/><path class="cls-4" d="M309.28,125.43a32.56,32.56,0,0,0,3-10.23,10.94,10.94,0,0,1-2.73,4c-5.23,5-11.36,9.8-12.53,16.83a27.49,27.49,0,0,1-.55,3c-.23.11-.23-.16-.31-.24l.66-8.67c.63-8.47-3.83-17.88,1.06-25.34-.16,0-.28.12-.4.16C293,110.63,290,116.88,290,124.49c0,9.41,5.42,16,6.09,24.84C297.52,140.11,305.25,133.55,309.28,125.43Z"/><path class="cls-4" d="M298.93,183.26c5,4,11.05,7.07,15.66,10.58-.9-2.3-2.38-4.41-3-6.79-2.7-10.9-1.21-23.55-5.86-33.62.86,5.74-1.4,10.81-1.91,16.28A24.29,24.29,0,0,0,306,182.32c.5,1.13,1.44,2.11,1.72,3.28a23,23,0,0,1-4-5.31c-5.42-8.79-16.79-14.49-17.57-25.19h0a33.54,33.54,0,0,0,1.6,14C289.83,174.9,294.05,179.39,298.93,183.26Z"/><path class="cls-4" d="M367.42,212.12c-8.79,0-16.67,4.25-24.37,7.45-7,2.89-16.24,2.35-22.45-1.95a25.75,25.75,0,0,0,11.4,7.81c7.85,3.13,17,.74,23.74-3.55,4.81-3.09,8.95-7.46,14.69-7.46,9.25,0,19,9.49,27.29,18.08a30.72,30.72,0,0,0,3.71-3.36C392.72,220.86,380.42,212.12,367.42,212.12Z"/><path class="cls-4" d="M351.72,213.05c1.37-.35,3-.23,4.26-.7-5.23-1-10.27-2.66-14.33-6.37-5.82-5.31-11-11-17.18-15.11,4.88,6.56,6.24,16.09,15.15,19.41,1.56.59,3.39.7,4.76,1.56-1.72.28-3.2-.27-4.8-.62-11.48-2.46-25.46.7-34.05-9.06,3.24,6.4,10,11.44,16.44,13.55C331.92,219.07,342.35,215.36,351.72,213.05Z"/><path class="cls-4" d="M332.51,208.25c-7.46-6-8.59-15-11.91-22.92-2.07-4.92-5.43-9.33-9-13.63,3.94,7.89,2.23,18,7.34,25.46a36.67,36.67,0,0,0,5.9,6.4l-.08.12a25.63,25.63,0,0,1-5.27-3.59c-8.94-7.46-22.42-8.4-27.77-20.54h0c1.45,8.9,8.52,16.79,16.17,21.79C315.13,206.1,324.47,205.59,332.51,208.25Z"/><path class="cls-4" d="M436.42,98.6c3.05,4,7.18,6.48,10.78,9.84-1.92-4-2.31-8.59-4.73-12.46-4.18-6.63-11.13-9.21-17.57-11.71C429.59,88.41,432.75,93.76,436.42,98.6Z"/><path class="cls-4" d="M450.28,111.84c.7,2.38,1.76,4.65,2.34,7.14l-.15.12a20.84,20.84,0,0,0-5.27-7.73c-4.49-4.26-11.25-6.79-13.48-13,.12,8.63,7.46,15.19,14.18,20.22a24.47,24.47,0,0,1,7.15,8.52,29.41,29.41,0,0,1-.16-6.68c.7-7.54,1.13-16-4-21.71h0c-2.46-2.74-5.24-4.88-8.52-5.7C448.68,97.43,448.33,105.28,450.28,111.84Z"/><path class="cls-4" d="M457,130.11l.66,8.67c-.08.08-.08.31-.31.24a27.49,27.49,0,0,1-.55-3c-1.17-7-7.34-11.87-12.53-16.83a11.09,11.09,0,0,1-2.74-4,32.5,32.5,0,0,0,3,10.23c4,8.12,11.76,14.68,13.16,23.94.67-8.87,6.09-15.43,6.09-24.84,0-7.61-3-13.86-7.42-19.52-.11-.08-.23-.2-.39-.16C460.82,112.27,456.33,121.68,457,130.11Z"/><path class="cls-4" d="M458.4,154.36c-.86,3.28-1.17,6.8-2.5,9.84-.11.08-.23-.08-.31-.15,3.32-9.3-1.52-17.85-6.25-25.19a21.43,21.43,0,0,1-2.42-6.44c-.5,4.21.39,9.06,1.17,13.39,1,5.58,2.89,10.82,4.42,16.21,1,3.35.74,7.14.23,10.7l.47-.4c3.51-6.48,10.47-11.55,12.57-18.66,1.68-5.66,2.85-12.22,1.68-18.39h0a34.74,34.74,0,0,0-2-7C467.38,138.35,460.71,145.65,458.4,154.36Z"/><path class="cls-4" d="M410.69,219.57c-7.74-3.2-15.58-7.45-24.37-7.45-13,0-25.3,8.78-33.93,17a27.71,27.71,0,0,0,3.71,3.36c8.27-8.55,18-18.08,27.29-18.08,5.74,0,9.88,4.37,14.68,7.46,6.68,4.25,15.86,6.68,23.75,3.55a26.2,26.2,0,0,0,11.4-7.81C427,221.88,417.68,222.46,410.69,219.57Z"/><path class="cls-4" d="M450.16,180.21a22.94,22.94,0,0,1-4,5.31c.28-1.13,1.21-2.14,1.72-3.28A24.35,24.35,0,0,0,450,169.63c-.55-5.47-2.81-10.54-1.91-16.28-4.69,10.07-3.17,22.72-5.86,33.62-.59,2.42-2.07,4.53-3,6.79,4.61-3.51,10.62-6.6,15.66-10.58,4.88-3.83,9.1-8.36,11.32-14.21a32.94,32.94,0,0,0,1.6-14C467,165.73,455.59,171.43,450.16,180.21Z"/><path class="cls-4" d="M434.23,200.09a25.36,25.36,0,0,1-5.27,3.59l-.08-.12a39.77,39.77,0,0,0,5.9-6.4c5.11-7.42,3.4-17.61,7.34-25.46-3.59,4.3-6.95,8.71-9,13.63-3.32,7.89-4.45,16.91-11.91,22.92,8-2.66,17.38-2.15,24.6-6.87,7.62-5,14.68-12.89,16.17-21.79C456.65,191.69,443.21,192.63,434.23,200.09Z"/><path class="cls-4" d="M414.2,211.26a13.11,13.11,0,0,1-4.8.62c1.36-.86,3.16-1,4.76-1.56,8.9-3.36,10.27-12.89,15.15-19.41-6.21,4.14-11.36,9.8-17.18,15.11-4.06,3.71-9.1,5.28-14.33,6.37,1.25.47,2.89.35,4.26.7,9.41,2.34,19.79,6,29.79,2.7,6.44-2.15,13.16-7.19,16.44-13.55C439.66,212,425.64,208.84,414.2,211.26Z"/><path class="cls-4" d="M376.87,77.94a64.44,64.44,0,1,0,64.43,64.43A64.5,64.5,0,0,0,376.87,77.94Zm0,76.73a12.3,12.3,0,1,1,12.3-12.3A12.3,12.3,0,0,1,376.87,154.67ZM386.12,132a13.85,13.85,0,0,0-8.43-3.52V118a24.17,24.17,0,0,1,15.89,6.6Zm-10-3.52a13.9,13.9,0,0,0-8.44,3.52l-7.45-7.46a24.15,24.15,0,0,1,15.89-6.6v10.54Zm-9.53,4.65a13.78,13.78,0,0,0-3.51,8.43H352.5a24.27,24.27,0,0,1,6.6-15.89Zm-3.51,10a13.78,13.78,0,0,0,3.51,8.43l-7.46,7.46a24.27,24.27,0,0,1-6.6-15.89Zm4.6,9.56a13.9,13.9,0,0,0,8.44,3.52v10.54a24.25,24.25,0,0,1-15.89-6.6Zm10,3.48a13.9,13.9,0,0,0,8.44-3.52l7.45,7.46a24.15,24.15,0,0,1-15.89,6.6Zm9.57-4.61a13.78,13.78,0,0,0,3.51-8.43h10.55a24.27,24.27,0,0,1-6.6,15.89Zm3.51-10a13.78,13.78,0,0,0-3.51-8.43l7.46-7.46a24.27,24.27,0,0,1,6.6,15.89Zm3.95-18.12a25.9,25.9,0,0,0-17-7.06V104.69A37.58,37.58,0,0,1,403,115.2Zm-18.59-7.06a26,26,0,0,0-17,7.06l-8.27-8.27a37.58,37.58,0,0,1,25.3-10.51v11.72ZM358,124.57a25.88,25.88,0,0,0-7.07,17H339.19a37.59,37.59,0,0,1,10.5-25.3Zm-7,18.59a26,26,0,0,0,7.07,17l-8.32,8.28a37.59,37.59,0,0,1-10.5-25.3Zm8.16,18.11a25.86,25.86,0,0,0,17,7.07v11.72a37.63,37.63,0,0,1-25.31-10.51Zm18.55,7a26,26,0,0,0,17-7.06l8.27,8.27A37.58,37.58,0,0,1,377.65,180Zm18.12-8.16a25.88,25.88,0,0,0,7.07-17h11.71a37.59,37.59,0,0,1-10.5,25.3Zm7.07-18.55a26,26,0,0,0-7.07-17l8.28-8.28a37.59,37.59,0,0,1,10.5,25.3Zm1.21-27.49a39.1,39.1,0,0,0-26.4-10.93V92.78a49.45,49.45,0,0,1,33.7,14Zm-28-11a39.14,39.14,0,0,0-26.4,10.93l-7.3-7.3a49.45,49.45,0,0,1,33.7-14ZM348.6,115.2a39.13,39.13,0,0,0-10.94,26.39H327.32a49.36,49.36,0,0,1,14-33.7Zm-10.94,28a39.13,39.13,0,0,0,10.94,26.39l-7.3,7.3a49.32,49.32,0,0,1-14-33.69Zm12,27.49a39.14,39.14,0,0,0,26.4,10.93v10.35a49.45,49.45,0,0,1-33.7-14Zm28,11a39.15,39.15,0,0,0,26.4-10.94l7.3,7.31a49.45,49.45,0,0,1-33.7,14Zm27.53-12.07a39.07,39.07,0,0,0,10.93-26.39h10.35a49.32,49.32,0,0,1-14,33.69Zm10.93-28a39.07,39.07,0,0,0-10.93-26.39l7.3-7.31a49.36,49.36,0,0,1,14,33.7Zm-3.63-35.92a50.89,50.89,0,0,0-34.83-14.45V79.51a62.63,62.63,0,0,1,43.11,17.88ZM376.09,91.22a51,51,0,0,0-34.83,14.45L333,97.39a62.63,62.63,0,0,1,43.11-17.88V91.22Zm-35.93,15.54a50.88,50.88,0,0,0-14.44,34.83H314a62.64,62.64,0,0,1,17.89-43.11Zm-14.41,36.4A51,51,0,0,0,340.2,178l-8.31,8.24A62.44,62.44,0,0,1,314,143.16Zm15.55,35.92a50.89,50.89,0,0,0,34.83,14.45v11.71A62.63,62.63,0,0,1,333,187.36Zm36.35,14.45a51,51,0,0,0,34.83-14.45l8.28,8.28a62.63,62.63,0,0,1-43.11,17.88V193.53ZM413.58,178A50.88,50.88,0,0,0,428,143.12h11.72a62.64,62.64,0,0,1-17.89,43.11ZM428,141.59a51,51,0,0,0-14.44-34.83l8.27-8.28a62.64,62.64,0,0,1,17.89,43.11Z"/><polygon id="polygon59" class="cls-4" points="380.58 127.46 380.19 127.5 380.19 127.97 380.58 127.93 380.58 127.46"/><rect id="rect61" class="cls-4" x="379.6" y="126.83" width="0.51" height="0.39"/><polygon id="polygon63" class="cls-4" points="378.67 126.72 379.13 126.79 379.17 126.4 378.7 126.33 378.67 126.72"/><polygon id="rect65" class="cls-4" points="378.28 126.56 377.85 126.52 377.88 126.13 378.35 126.17 378.28 126.56"/><rect id="rect67" class="cls-4" x="374.53" y="126.05" width="0.51" height="0.39"/><polygon id="polygon69" class="cls-4" points="373.39 126.83 373.86 126.91 373.9 126.52 373.47 126.44 373.39 126.83"/><polygon id="rect71" class="cls-4" points="373.47 127.46 372.93 127.3 373.04 126.91 373.55 127.07 373.47 127.46"/><polygon id="rect73" class="cls-4" points="372.54 127.93 372.46 127.54 372.85 127.46 372.93 127.85 372.54 127.93"/><polygon id="polygon75" class="cls-4" points="321.58 168.34 321.58 169.2 321.97 169.2 321.89 168.22 321.38 168.03 321.38 167.68 321.07 167.68 321.07 168.34 321.58 168.34"/><polygon id="polygon77" class="cls-4" points="324.31 170.72 325.29 171.19 325.6 172.09 326.07 172.44 326.5 173.42 326.26 173.89 325.52 173.22 325.01 172.48 324.74 171.9 324.31 170.72"/><polygon id="polygon79" class="cls-4" points="340.71 190.99 341.06 191.85 340.59 192.12 340.32 191.73 339.69 191.54 339.62 190.95 339.11 190.17 339.89 190.29 340.71 190.99"/><path id="path81" class="cls-4" d="M374.88,131.71h-.7l-.12-1.44.39-.27v-.75h-2.27l-.07-.74.31-.19-.51-.2-.39.51-.12.59-.66.11v.31h-.47v.86L368.44,132l-3.64-.12c-.27.59-.89-.08-.89-.08-.12-.39-1.06,0-1.06,0,0,.74-1.25-.31-1.25-.31l-2.26-1.64c-1.29-1.17-3.24.31-3.32.66.08.94-1.49.2-1.49.2s-1.28-.39-1.48.12-1.05.39-1.05.39l-.12.27-.67.12-.11.39-.78.11,1.95-.07c.51-.08-.2,1.13-.51,1.05l-.9.08-.31.31h-.86l-.39.55-1.25-.08s-.7.58-.66.78-.12.78-.31.78-.59.59-.47.78-.39.86-.39.86l-.12.66-.39.12v1.8l-.78.54v.79l-1.17,1.25.11,1-1,1.05.11,1.06-.58.19-.12.47-.27,1.37.66.08c.31-.12.28.86,0,1s-1,.39-.58.67-1.06.19-1.06-.2-.78-.74-1-.58-.51-.59-.51-.59c-.7-.74-2.93.08-2.93.08l-.31,1c-.71.12-1.17,1.33-1.17,1.33-.59.2-1.06.94-.86,1.13s-.32.28-.32.28v1.44l-.31.47.08,1.56c.39,0,.31.74.31.74-.66.08-.51.94-.51.94l-1.36.47-.28.39-1.67-.08-.47.47-.47-.47h-3.24l-.12-.31-.66-.12-.08-.74-1,.08L324,157l-1.06.08c.08.66-1.05,1.64-1.17,1.36s-.86-1-.51-1.13a10.22,10.22,0,0,1,1.17-.27v-.47l-2.42-.08-.27.39-1,.08V158l-.46.12c-.32.2.07.94.07.94.47.47-.07,1.17-.07,1.17-.39.39.31,1.13.31,1.13.51.12-.31.51-.31.51a1.15,1.15,0,0,0,.5.86.66.66,0,0,0,.28,1l.07,1.13.47.27v.74l.28.47H321l-.08-1.64c-.9-1,.78-1.33.86-.94s.78.59.78.59c.12,1,1.25,1.56,1.56.59s.59-.39.79.07a8.71,8.71,0,0,0,1.44,1.6h1l.11.94c1.1-.08,1.45.08,1.88,1.56A2.88,2.88,0,0,0,331,171l.9-.08c0-.78.89.12.89.55s1.76,1.91,1.76,1.91l1.76.39,1.64,1.33,1.25-.12h.51c.31-1.13,1.87.08,2,.47s1.17,1.05,1.28.74.86-.12,1,.86.59.78.59.78l3.71-.08,1.28-1.13,3.32-.08c1.68-.08.67-2.38.32-2.38-.59-.47.19-2.38.19-2.38l-4.72-4.41c-1.1,0-.12-1.61-.12-1.61.86-.54-.2-1.36-.2-1.36a3.09,3.09,0,0,0-.46-1.72,2.32,2.32,0,0,1-.86-2.3v-1.06c-1-.94.39-1,.39-1a1.06,1.06,0,0,0-.32-1.37L347,156l-1.06-.12-.11-3.08-2.35-3.36c-.47-.12-.11-.94-.11-.94.58-.31-.12-1.13-.12-1.13l-.08-1.44,1.37-.12.31-.51h.66l-.08-1.72a.72.72,0,0,1,1.1-.39l.9.08.5-1,.12-.79-.7-.07c-.78-.47-.39-2.19-.39-2.19,1.25-1.84,2.65-.78,2.65-.78l.9-.08c1.37.94.12,2.62.12,2.62-.28.39-.12,1.64-.12,1.64l.31,2.11-.86.74c-.7.39-.7,1.33.08,1.52.51.08.31,1.33-.47.47-1.17,0,.67,1.05.12.78,1.17.59.9-.51.9-.51l1.56-1.25c.59-.47,1.64,1,1.64,1.17a11.15,11.15,0,0,0,2.58.08,3.11,3.11,0,0,1,1,1.64c.71-.93,2.23-.08,1.1.47,1,.66,1,1.25,1,1.25.86-.27.86.39.86.59a6.71,6.71,0,0,0,.27-1c-1-.74,1.29-1,.67.31l-.39.59.66.51.08,1.52c1.44-.12,1.05-1.91,1.05-1.91l.67-.12c0-.59.47-.28.47-.28-.47-2.22,1.05-2.61,1.05-2.61.86-.2.9-2,.9-2-.59-.28-.27-1.17.39-.39s-.39-1.6-.39-1.6l-.51-.47-.7-.08-.08-.74h-1.17l-.2.93-.43.2-.11-.27-.2.74h-1.17l-.08-.78.71-.2.27-.39.19-1.05h.86l1.1-.32c.07-1.13.66-.85.66-.85l.39.31.59.47.07.39-.39.19-.07.55.19.74h.51a1.09,1.09,0,0,1,1.95-.39l.39-.94c-.9-.47,0-1.17.24-.86s.85-.86.85-.86.47.59,0-.19a.8.8,0,0,1,.32-1.17c-.12-.78.86-.67.86-.67l.07-1.05L370,138c-.2.94-1,.12-.59-.08a3.52,3.52,0,0,0,.78-.58v-.67l.39-.11.08-.67h1l.86-.39.19-.31.9-.08,1.29-1.17-.12-.51c-.78,0,0-.58,0-.58l.08-1.1Z"/><path id="path83" class="cls-4" d="M348.72,144.76l-1.18-.12.08.47h.31c.51.94.08,3.16.08,3.16s-.78.08-.9-.31-.46.86-.19,1,1.17,0,1.25.74.58-.46.58-.46l0-4.53Z"/><polygon id="polygon85" class="cls-4" points="347.54 150.11 347.54 151.67 348.56 153.07 348.95 152.14 349.11 151.55 348.64 151.36 348.72 150.38 349.11 150.3 349.14 149.83 348.17 150.5 347.54 150.11"/><polygon id="polygon87" class="cls-4" points="349.22 154.52 349.22 153.85 348.75 153.93 348.72 154.44 349.22 154.52"/><polygon id="polygon89" class="cls-4" points="348.64 157.68 348.64 157.21 348.09 157.29 348.09 157.76 348.64 157.68"/><path id="path91" class="cls-4" d="M349.42,155.65a.28.28,0,0,0,0-.55.28.28,0,0,0,0,.55Z"/><circle id="circle93" class="cls-4" cx="349.85" cy="156.74" r="0.27"/><circle id="circle95" class="cls-4" cx="349.89" cy="149.21" r="0.27"/><polygon id="polygon97" class="cls-4" points="370.7 140.27 371.09 140.27 371.17 140.69 370.89 140.93 370.78 141.28 370.27 141.4 369.1 142.53 369.02 143.04 368.71 143.51 368.32 144.48 366.95 144.56 366.68 145.73 366.87 146.75 368.05 147.22 368.16 146.55 368.55 146.36 368.63 145.69 368.9 145.22 369.29 144.76 369.41 144.25 370.07 143.86 370.86 143.7 371.17 143.31 371.29 142.53 371.36 141.94 371.64 141.51 372.42 141.2 372.42 139.95 372.03 139.95 371.95 139.49 371.25 139.41 371.09 139.76 370.78 139.76 370.7 140.27"/><path id="path99" class="cls-4" d="M373.75,144V143l-.12-.86-1-.47-.7.66-.12.94v.59l-.66.11-.12,1.8-.51.2.08.66-.7.2-.7.19-.12.86-.51.31-.27.78-.31,1.92s.58,1.13.89.58a1.3,1.3,0,0,1,.86-.58l.2-.47,1.76.08a.5.5,0,0,1,1-.12c0,.31.67.08.67.08l.46-.75h.71l.08-.78.31-.19v-1.17a1.22,1.22,0,0,0,.9-1.33l.27-.31-.12-.47c-.51-.2-.27-.67.08-.55s-.47-.58-.47-.58c-.39.31-.7-.39-.7-.39Z"/><path id="path101" class="cls-4" d="M374.8,151.94c-.08.78-1.05,1.06-1.05,1.06l-.71-.2-.39-.31-.08-.94.59-.08.12.39,1.52.08Z"/><path id="path103" class="cls-4" d="M378.31,147.72c.16.59.12-.93.4-.85s.07-.94.07-.94l-1.17.86C378.16,146.87,378.24,147.45,378.31,147.72Z"/><path id="path105" class="cls-4" d="M381.75,144.29c.27.58.2,1.44,1.17,2.11.31.23-.19.66-.51.47a11,11,0,0,1-1.24-1.64v-.86c.19-.51.46-.32.58-.08Z"/><polygon id="polygon107" class="cls-4" points="381.75 164.32 381.95 164.51 382.14 164.87 382.57 164.13 382.22 164.01 381.75 164.32"/><line id="line109" class="cls-4" x1="380.11" y1="163.27" x2="380.11" y2="164.09"/><polygon id="polygon111" class="cls-4" points="389.52 162.33 390.03 161.98 389.83 161.66 389.29 161.98 389.52 162.33"/><path id="path113" class="cls-4" d="M408.3,176.07l.59.28.08,1.13c.78.78,3.32.12,3.32-.08s-.12-2.42-.12-2.42l-.31-.31-.08-1.64c.27-.86-1.25-2.11-1.37-1.84s-1,.08-1,.31-.51,1.57-.28,2-.19.46-.27.93-.74,1.17-.59,1.6Z"/><path id="path115" class="cls-4" d="M406.86,173.42c-.12.51-.59.78-.86.58s.31.32.47.59a.37.37,0,0,0,.66,0c.12-.27.08-.86.2-1.13s-.39-.32-.47,0Z"/><rect id="rect117" class="cls-4" x="403.85" y="161.35" width="0.47" height="1.25"/><path id="path119" class="cls-4" d="M410.57,148.66c-.27-.39,1.29-1,1.56-.27s0,.66-.27.58-.9.2-1.29-.31Z"/><polygon id="polygon123" class="cls-4" points="411.98 139.84 411.9 140.23 412.6 140.34 412.68 139.95 411.98 139.84"/><polygon id="polygon125" class="cls-4" points="410.14 140.97 410.18 141.09 410.57 140.93 410.41 140.62 410.33 140.38 410.14 140.5 409.67 140.77 409.24 140.5 409.05 140.85 409.55 141.16 409.67 141.24 409.75 141.16 410.14 140.97"/><path id="path127" class="cls-4" d="M412.6,124.92h-1s.32.12-.58-.74a.89.89,0,0,0-1.49.19l-1.05.12v1.05l-.51.2.08.66.7-.07s0,.78.2.46,1.83.08,1.68.86c0,.32,1.64,1.17,1.44,2.23a.78.78,0,0,1,.67,1l1.09.11.31-.66.31.08V130l-.7-.2-.12-2.11-.46-.31.11-.55-.51-.19.28-.86-.47-.86Z"/><path id="path129" class="cls-4" d="M415.45,131.64l-.51-.08-1.17.19-.66,1.25a2,2,0,0,1,.58.67c.28.47.39,3.16-.39,3.63s.08.19.08.19l-.12,1.45c.2.66.51.31.71,0s.39-.39.66-.74a3.14,3.14,0,0,0,.7-1.37c.08-.47.39-1.17.2-1.37s.19-1.13.19-1.13a1.21,1.21,0,0,0,0-1.05,1.33,1.33,0,0,1,.28-1.37l-.55-.27Z"/><polygon id="rect133" class="cls-4" points="416.23 134.33 416.27 133.82 416.66 133.86 416.62 134.41 416.23 134.33"/><polygon id="rect135" class="cls-4" points="416.19 136.17 415.84 135.97 416.04 135.58 416.39 135.78 416.19 136.17"/><path id="path137" class="cls-4" d="M415.65,130.93l-.28-.58a2.5,2.5,0,0,1,.12-.78c.12-.28-.27-.51-.47-.59s-.12-.58-.19-.86-.51-.47-.51-.47-.12-1-.12-1.17-.59-.47-.39-.66.31-.47.51-.59-.2-1,.11-.86.32.55.47.78-.07,1.18.28,1.37-.08.86.47.86.19,1.25.19,1.25-.12.94.2,1,.11,1.64.11,1.64l-.5-.32Z"/><path id="path139" class="cls-4" d="M411.43,120.27c.19.28.58.47.58.74s-.11.47.28.51.66-.08.78.28a2.74,2.74,0,0,1,.08,1.13c-.08.27.07.66.39.66s.39.08.39.28.39-.75.39-.75a3.26,3.26,0,0,1-.59-.86s-.31-.93-.31-1.05-.47-.27-.66-.31-.51-.67-.51-.67l-.82,0Z"/><path id="path141" class="cls-4" d="M412.05,119.65a1.54,1.54,0,0,0-.66-.59,2.13,2.13,0,0,0-.7-.27.42.42,0,0,1-.39-.59c.11-.31-.2-.47-.2-.74s.2-.27.51-.08.27.28.51.59.39.66.66.58.47.59.7.4.2.46.2.46l-.63.24Z"/><path id="path143" class="cls-4" d="M404.48,127.11c.35.35-2,.27-2,0s.2-1.18.79-1S404,125,404,125s-.51.08-.08-.2,0-.66-.19-.86a2.65,2.65,0,0,1-.39-.54h.89c.39-.28.51-1.53.51-1.53a1,1,0,0,0,1.17-.27,2.63,2.63,0,0,0,.39.74c.28.32-.66.47-.31.67s.47.78.31,1-.86.08-.86-.19-.27.31,0,.66-.31.78-.46.78-1,.12-.28.55a2.25,2.25,0,0,0,1.49.19s.58-.07.78.28-.08.39-.39.39-1.88-.12-1.88-.12-.39.43-.19.63Z"/><path id="path145" class="cls-4" d="M400.3,127.69c.31-.08,1.09-.11,1.25.08s-.47.47-.47.47l-.78.12c-.24-.32-.31-.59,0-.67Z"/><path id="path147" class="cls-4" d="M408.69,122.19c.51-.28,1.64-.28,1.57-.67s.66-.51.66-.51l.2.79.58.39.08.74s.19-.12-.51.08-.27.5-.27.5l-1.56.08-.2-.66-.55-.74Z"/><path id="path149" class="cls-4" d="M406.16,118.59c.39,0-.12,1.53.89,1.37s.08.47.86.51.59-.59.86-1.06.12-.74-.31-.86-.47-.11-.59-.66a1,1,0,0,0-.66-.66l-.19-.78-.86.5-.86,1.14c0,.93.47.5.86.5Z"/><polygon id="rect153" class="cls-4" points="407.88 124.18 408.07 123.79 408.42 123.94 408.23 124.37 407.88 124.18"/><rect id="rect155" class="cls-4" x="407.21" y="123.55" width="0.39" height="0.47"/><polygon id="rect157" class="cls-4" points="407.52 114.77 407.6 115.35 407.21 115.39 407.13 114.81 407.52 114.77"/><rect id="rect159" class="cls-4" x="406.43" y="120.9" width="0.39" height="0.31"/><polygon id="rect161" class="cls-4" points="405.38 120.9 405.34 120.51 406 120.47 406.04 120.86 405.38 120.9"/><polygon id="rect163" class="cls-4" points="400.03 127.26 399.67 127.11 399.87 126.64 400.22 126.79 400.03 127.26"/><polygon id="rect165" class="cls-4" points="398 126.05 397.96 125.66 398.62 125.58 398.66 125.97 398 126.05"/><polygon id="polygon169" class="cls-4" points="386.75 125.94 385.3 125.97 385.34 126.36 386.75 126.33 386.75 125.94"/><polygon id="rect171" class="cls-4" points="384.37 126.48 384.21 125.9 384.6 125.82 384.72 126.4 384.37 126.48"/><polygon id="rect173" class="cls-4" points="384.09 126.91 383.98 126.52 384.17 126.48 384.29 126.83 384.09 126.91"/><path id="path175" class="cls-4" d="M387.33,125.78l-.07.47.7.08s.31.27.31.46.47.39.7.39,1-.54,1-.54.31-.94.08-.86-.78.47-.86.08-.86-.2-.86-.2l-1,.12Z"/><path id="path177" class="cls-4" d="M390.58,125.08c0,.19-.12.46.27.54s1.09-.27,1.17.12.08.66.59.86a3.36,3.36,0,0,0,1.25.27c.39,0,1.25-.12,1.25-.12a3.92,3.92,0,0,1,1.09.32c.7.74,1.17.93,1.37.58s-.08-1.05-.12-1.32-1-1.53-1.29-1.25-.39,0-1,.19-1.83.08-1.87-.19-1-.39-1-.67-.66-.58-.58-.19-.47.58-.59.47-.58.39-.58.39Z"/><path id="path179" class="cls-4" d="M405.49,116.64l.47-1.44c-.66-.12-.51-.86-.51-.86-.07-.59-1-1.25-1.29-1.06s-.19-1.36-.19-1.36.59-.39.86-.2-2.23-3.28-2.73-3-1.68-.31-1.64-.93-2.35-2.58-2.35-2.58-.78-.51-.9-.12-.39.67,0,.86.32-.31.79.12,1.28,1.05,1,1.44a1.94,1.94,0,0,1-.7.55l.47.55h.7l.12,1.13s.78.39,1,.86.2.74,0,1-.58.75-.5,1.18a1,1,0,0,0,.58.66l.51.08.39.19v.86c.51-.12,1.37.59,1.29,1.06s.12.19.78.66.47.55.9.86.82.08,1-.51Z"/><path id="path181" class="cls-4" d="M394.79,107.66c-.07-.27-.19-1.17.2-1.13a1.49,1.49,0,0,1,.58.19c.47.2.51-.31.51-.31h.7l.9.74-.11.59-.67.08c-.31-.51-1-.32-.86.11s-.31,1.33-.58,1.37-1.1.08-1.06-.31.39-1.33.39-1.33Z"/><path id="path183" class="cls-4" d="M394.29,105.9v-.5s-.08-.51-.39-.51-.9-.39-.79-.67-1.09-.54-1.09-.54-1.09-1.06-.7-.94.19-.47.19-.47a5.59,5.59,0,0,1-1,.08c-.2-.08-.12-.66-.12-.66s-.78-.2-.78,0,.27.19.39.58.08,1.06.66,1.17.71.28.78.55.79.31.79.31l.5.28,1.53,1.32Z"/><polygon id="polygon185" class="cls-4" points="387.26 99.19 387.06 98.64 386.55 98.52 386.55 99.11 387.26 99.19"/><path id="path187" class="cls-4" d="M387.06,96.41c-.66-.5.9.39.9.39a.86.86,0,0,1,.86.59c0,.2.7.12.7.12l.08-.47-.51-.66-.47-.32s-.7-.08-.7-.27-.59.82-.86.62Z"/><path id="path189" class="cls-4" d="M399,96.8c-.19.59-.27,1.37-.59,1.37s-.19.86-.19.86a6.17,6.17,0,0,1,1.09.08c.28.08.28.74.28.74,1-.08,1.36,1.25,1.25,1.6s.39.31.39.31a6.11,6.11,0,0,1-.12,1.33c-.12.27.86.47,1.09.86a2.2,2.2,0,0,1-.31,1.8c-.2.07.51.27.47.58s.19,0,.27.55.2,1.64.2,1.64l.9.08c.11-.86,1.79-.9,2.07-.78a4,4,0,0,1,1.95,2.5c0,.39-.71.46-.71.46l.12,1.92c1.1.31,2,1.91,1.88,2.18s.78.2.78.2c.11-1.17,1.25-.78,1.29-.39s.27,1.25.27,1.25l.31.58.47.47.7-.08.2.4.86.11a8.32,8.32,0,0,1,.78,1c.08.19,1.05.12,1.29.19s.66.28.7.59a3.87,3.87,0,0,0,.47.86s.78.19.86.47a7.32,7.32,0,0,0,.39.86l.66.54.08.59.7.08.2.78,1.17-.08.66-.47c.86-.47,1.45-1,1.49-1.33s.19-1.25.86-1,.19-1.45.19-1.45-.9-.66-.86-1-.9-1-.86-1.25-.86-.78-.78-1.06-.47-1-.47-1l-1-.94-.12-.58-.78-.08L418,111.21l.08-.54-.47-.08v-.74l-.47-.28-.7-.07L415,107.93l-.12-.74h-.7l.12-1.37a2.35,2.35,0,0,0,.19-1.71s-.9.47-1.36.27.19-.66.19-.66v-.51l-.39-.39s-1.09.12-1.17-.08-.27-1-.27-1l-.08-1.14-.47-.19-.08-.39-.7.08v-.79l-.39-.11-.39-.2-.08-.78-1.45-.08-.46-.66-.51-.78-1.64-.12-.39-.39L404.2,96l-.46-.19-.2.31-1.25.08-.08.39c-.54.27-3.12,0-3.2.19Z"/><path id="path191" class="cls-4" d="M405.84,95.09c-.11-.51,1.29-1,1.64-.59a2.64,2.64,0,0,1,1.37,2.42c0,.7-1.17-.74-1.17-.74l-1-.31a1,1,0,0,1-.86-.78Z"/><polygon id="rect193" class="cls-4" points="386.79 95.91 386.44 95.75 386.71 95.13 387.06 95.32 386.79 95.91"/><path id="path195" class="cls-4" d="M383.43,89.42l-.86-.85v-.75l-.27-.27-.28-.94-.85-.27-.86.31-.9.59-1,.11-.51.59,2.07.2.39.66,1.49.12,1,1c.9.39,1.1,0,.59-.47Z"/><path id="path197" class="cls-4" d="M383.31,86.18c-.15-.58-1,.75-.11,1a3,3,0,0,0,1.67,0l.2-.39,3.24.08a1.9,1.9,0,0,0,.39-.67s.78-.27,1.09-.11.08-.94-.27-.78a3.41,3.41,0,0,1-1,.07h-1.18c-.07-.47-1.09-.27-1.17,0s-.43.32-.43.32l-1.48.11c-.16.39-.9.67-1,.39Z"/><path id="path199" class="cls-4" d="M376.87,97.31c1,.31,1.37.08,1.44-.19s.12-.32.51-.39-.08-.86-.47-.78a.71.71,0,0,1-.86-.47c-.07-.32-.7-1.17-.78-.51s-.46.66-.39,1.13.32,1.13.55,1.21Z"/><path id="path201" class="cls-4" d="M369.41,98.05c0-.23,1.29-.27,1.49-.07s.07.54.66.54.31.39.27.59-.7.12-.78-.08-1.05-.27-1.05-.27-.51-.39-.59-.71Z"/><polygon id="polygon205" class="cls-4" points="390.81 84.74 390.97 84.89 391.08 84.78 391.75 84.23 391.47 83.92 390.97 84.35 390.65 84 390.38 84.31 390.81 84.74"/><polygon id="polygon207" class="cls-4" points="387.92 83.22 388 83.14 388.74 82.67 388.51 82.36 387.92 82.75 387.49 82.47 387.3 82.83 387.8 83.14 387.92 83.22"/><polygon id="polygon209" class="cls-4" points="385.58 96.65 386.01 97.31 386.32 97.08 385.89 96.38 385.81 96.3 385.73 96.3 385.07 96.22 385.03 96.61 385.58 96.65"/><path id="path211" class="cls-4" d="M364.34,114.65l.07.74h1c.39,0-.31-.47-.31-.47s-.78.08-.74-.27Z"/><polygon id="rect213" class="cls-4" points="365.58 114.69 365.82 114.38 366.21 114.69 365.98 115 365.58 114.69"/><polygon id="rect215" class="cls-4" points="353.75 102.35 354.03 102.08 354.42 102.47 354.14 102.74 353.75 102.35"/><polygon id="polygon219" class="cls-4" points="372.07 187.51 372.34 187.79 372.65 187.48 372.85 187.28 372.61 187.12 371.95 186.81 371.79 187.16 372.18 187.36 372.07 187.51"/><polygon id="polygon221" class="cls-4" points="366.95 182.75 367.42 183.06 367.65 182.75 367.38 182.56 367.58 182.4 367.34 182.09 366.95 182.44 366.76 182.59 366.95 182.75"/><path id="path223" class="cls-4" d="M415.88,169.9a.67.67,0,0,0-.51-.46l-.12.39h0a.19.19,0,0,1,.12.07l.08.36s-.08.07-.08.11l.28.28a1.06,1.06,0,0,0,.23-.75Z"/><polygon id="polygon225" class="cls-4" points="416.46 168.65 415.84 168.62 415.88 168.03 416.5 168.11 416.46 168.65"/><path id="path227" class="cls-4" d="M431.5,163.54c.27-.16.62-.51.58.23s-.35.51-.58.75-.39-.75,0-1Z"/><path id="path231" class="cls-4" d="M434.82,160.73v-.08a1,1,0,0,0-.12-.43l-.35.2c0,.07,0,.19.08.27a.47.47,0,0,0,.11.31.33.33,0,0,0,.28,0l-.08-.39s0,0,.08.08Z"/><path id="path233" class="cls-4" d="M434,161c.12.39.23.78.23.82l.35-.16a5.7,5.7,0,0,1-.23-.78L434,161Z"/><path id="path235" class="cls-4" d="M432.51,162.6l-.39,0c0,.32,0,.71.36.74l.07-.39h0a1.37,1.37,0,0,1,0-.31Z"/><path id="path237" class="cls-4" d="M430.84,154.75c0-.11-.08-.23-.2-.27a1.4,1.4,0,0,0-1,.23l.24.32a1,1,0,0,1,.62-.2v0l.36,0Z"/><path id="path241" class="cls-4" d="M412.83,133.71a2.06,2.06,0,0,1-.86.39l-.19.74-.31.27a1.38,1.38,0,0,1,0,.67c-.08.46-.67.74-.67.74l-.27.31a12.83,12.83,0,0,1-1.76,0,.52.52,0,0,1,.2-1c.39.08-.08-1.13-.08-1.13l.51-.08s.08-1.17.27-1.17-.08-.39-.31-.58-.59-.86-.86-.79a6.78,6.78,0,0,1-1.29,0l-.19.4-.71.11s.08.51-.08.67c-.39.46-1.87,1.44-1.25-.2l.2-.39v-.59L404,132s-.59-.2-.59-.47a2.77,2.77,0,0,0-.08-.59L402,129.45l-1.64-.2-.12-.31-1-.12c-1.17-.58-2.22-.07-2,.94s.51,1.37-.11,1.37a.73.73,0,0,1-.78-.51s-.51-.19-.51.08-.2.78,0,1.05-.27.67-.47.47-.7-.78-.59-1-.89-1.45.12-1.64-.08-.79.31-.94l.51-.27h.51l.31-.28-.86-.12-.51-.07-1-.08a2.73,2.73,0,0,0-1.17,1.44c-.51,1-1.76-.39-1.29-.93s-1.45-.08-1.76.19-1.29.12-1.29.12c-.19.58-1.09-.08-.86-.47a1.27,1.27,0,0,0,.28-.66l-.32-.08-.39.74c-.89,0-1.17.51-1,.86s-.28-.08-.39.39.08.47.47.66-.2.2.07.51,1.06,0,.59.47a1.68,1.68,0,0,1-1.37.27c-.08.59-1.29.47-1.44.28s-1.1-1.37-1.1-1.37l-1.24-.08c-.12-.94.58-.47.85-1.17a9.15,9.15,0,0,0,.39-1.91s-1.05-.08-1.09.27-.7.55-.7.55-.51.19-.31.47-.39.39-.39.39.11.43-.08.58c-.51.55-1.84.08-2-.12l-.78-.31-.78-.51-.9.39-.28.28h-1l-.08.78,1.76.19.11,1.64-.7-.23h-.47l-.19-.39L375,131v1.45l.39.31.31.31.66.08.12.78,1.64.08.2.31,1,.08,1.88,1.91-.12.59-.31.19c.11.47-.86.2-.86.2v.39l.47.08.46.27.67-1.13c.7-.47,1.05.19,1.09.58s-.31.32-.31.32v.93l.39.12a.77.77,0,0,1-.27,1.25l-.2.66c-.19.59-.9.47-.9.47l-.27.39-.78.2,1.52.19c.16-.54.55-.66.74-.39a1.5,1.5,0,0,1,.2.74l.39.08-.08.74.39.12v2.11l.47.51c.78-.31.78.19.39.47s-.12,1.44-.12,1.44l-.31.31v.55l-.39.27v.75a1.75,1.75,0,0,0-1.64,0c-.58-.39-1.83-.28-1.83.07.39.51-.47.67-.47.67L379,151c.31.66-.31.74-.31.74V153l-.78.74.07,1.72c0,.47,1,.5,1.17.27s1,.55,1,.55h.59l.11-1.17-.39-.2V153l.67-.75c.78-.27.5,1.72.5,1.92.08.74.4.66.71.51.66-.28.11.74-.39.66s-.2.66-.2.66l.31.12-.58.47-.51.58-.66-.19-.78-.08-.28-.47-.47-.08-.07.94-.32.39-.78.78c1.06,0-.11.75-.39.75.59.19-.08.78-1.56.31V160l-.51.07.47.51.51.08-.2,1.13c0,.86-2.14.28-2.34.08l-.08,1.17-.39.08.08.78-.08,1.13.7-.11v.47l1.76.07,2.54-2.69,1.48-.31c.12-.67.79.11.79.11.66-.07.78.39.78.39l.86.12c.7.2.27.27.31.55s.39.27.39.27l.12-.86.39.08-.39-.47-.71-.31-.78-.31c-.51-.74.12-.59.67-.51h.85a7.6,7.6,0,0,1,1,1.64c0,.31.47.39.47.39l.58-.08.2.47h.59l.19.39H387l.08-.58-1.09-.2-.08-.66-.78-.2c-.28-1.13.19-1.44.51-.94l.39.08-.12-1,.47-.12-.12-1.37-.39-.12v-.46l1.64.07a2.27,2.27,0,0,1,.08-1.25h.47l.07.32,2,.19,1.4-1.6c-.08-.12.16-.19,0-.35s-.47,0-.78-.2,0-1.32-.08-1.56,1.1-.66.9-.08a1,1,0,0,0,0,.86c.86-.78,1.56.08,1.49.28s.46.39.78.19.7.59.58,1-1.29.31-1.36-.08-.28-.27-.4-.08a1,1,0,0,1-1.05.12c-.08,0-.08-.08-.12-.12l-1.4,1.6h.08c.78.47.39,1.06.11,1.17a2.12,2.12,0,0,1-.7.12l-.12.27-1.68.12-.11.67a.92.92,0,0,0-1,1.25,1.06,1.06,0,0,1,0,.85l.7.32.9-.28c.12-.66.7-.78,1.25-1.17s1.37.74,1.09,1.25a1.87,1.87,0,0,0-.27.74l.08.59-.66.27-.51.28-.08.31h-1.76l-.31.31-.86.08-.27.39-.59.08s-1,.47-.58,1-1.64.47-2.07-.27c-.12.66-.86.08-.86.08l-.71-.2-.07-1c-.12-.67-1.37-.67-1.29-.2s-2.35.2-2.35.2l-.78.39-.7.43-.08.31-1.17.12-.51.27-.19-.39h-.51l-.51.74c-1.36.08-2.65.86-2.54,1.17s-.5.67-.5.67l-.59.19-.39.59-.78.27-.12,1.37-.39.27v.59l-.47.11v.32l-.66.07.39,1,.51.27c.9.12.51,1.25.51,1.25l.5.08.28.74.5,1.06c.2.78.79.58,1.06.54s.51.79.51.79l2.57.07s-.11.28.32.39a13.45,13.45,0,0,0,3.55.08c-.12-.58,1.64-.74,2.34-.19a2.12,2.12,0,0,0,1.68.19l1,1.17.66,1.45,1.09.31.79.2.27,1.13.58.08.2.74c.7.51-.2,1.64-.2,1.64v1.44l.51.28-.08.54.86.86,1,.08,2.46,2.62,1.95.58.31,1.06.51-.08.39-.31,1.56-.08.79-.74.85-.12,7.23-6.13-.67-.39v-1.45c1.18-.86,1.25-2.38.12-2.5-.82-.11-.47-1,.31-1.13l.47-.19v-.59l1.49-1.37v-1l-3.24-2.69c-1.45-.51,0-3.68,1-3.64s-.08-4.88-.08-4.88l-.5-.27L403,164h-.7l-1.17,1.52-.31,1.06c-.12,1.36-4.14,1.13-4.34.93a11.81,11.81,0,0,0-1.56-.78s-1.05-.86-1.25-.58-1.09-.32-1.09-.12-.86-.47-.86-.47l-1.29-.47,1-.19-.2-.78,1.68.85c.2.28,1.05.2,1.05.2l.28.31a1,1,0,0,1,.86.31c.31.4,2,.08,2,.08l.47.39.7.28,2,.07.08-1.24.39-.4-.08-.78.47-.39v-.66l.39-.12.08-1.44.31-.08v-3.16l-1-.94c-.08.31-1.09.31-1.09.31s-.27.47-.47.47.27.59.12,1-.67.39-.67.39l-1,.27-.28.31h-1.05l-.12-.86,1.17-.31.67-.31.31-.67c.08-.66.86-.58.86-.58s1.48-1.25,1.56-1.84.59-2.22,1.49-2.22h1.67c.67-.28.47-1.13.47-1.13l.86-.12.12.47s1.17.11,1.29-.08.39-.66.7-.47,1.37-.47,1.37-.47c.08-.47,1.68-.27,1.68-.27l.19-.59s-1.09-1.52-1.29-1.52-1.25-.94-1.36-.59c-1.06-.27-1-1.71-1-1.71l-.39-.94c0-.55-1-1.64-1.17-1.52a.92.92,0,0,1,0-1.64c.27-.08.9-1,.9-1l.31-.94,1.09-.31.12-.86-.59-.08s.67-1.17,1-1.17a18.94,18.94,0,0,0,2.66-.12,3.57,3.57,0,0,0,.58-1.36c0-.2.51-.28.7-.31a2.45,2.45,0,0,0,.79-.86c.35-.67-.08-2.31-.36-2Z"/><path id="path245" class="cls-4" d="M376.87,157.45c.08-.08.2.31.39.23s.27.35.08.35-.2.24-.2.35a.71.71,0,0,1-.15.51c-.16.16-.28,0-.47,0a.87.87,0,0,0-.55-.11c-.23,0,0,.39,0,.39s-1,0-.82-.2.39-.19.24-.31,0-.2,0-.39.47-.12.35-.24,0-.7.23-.39l.16-.35c-.16-.15,0-.19-.35-.31s0-.7,0-.7l0-.39c.08-.51,1.05-.55,1.13-.12a3.71,3.71,0,0,1,0,.74l.27.12s0,.31-.27.31,0,.16-.16.31l.16.24Z"/><path id="path247" class="cls-4" d="M373.67,158c.15-.31.47-1.56.86-1.17s.62,0,.62,0a.59.59,0,0,1,.08.59c-.08.39-.2.78-.43.86s-.43.19-.74.23-.39-.51-.39-.51Z"/></g></g></g></svg>